<svg xmlns="http://www.w3.org/2000/svg" viewBox="0 0 984.22 978.33">
  <title>Asset 1</title>
  <g id="Layer_2" data-name="Layer 2">
    <g id="Layer_1-2" data-name="Layer 1">
      <path d="M383.32,19.24c13.08-3.41,25.57-6.54,38-9.92C446.17,2.58,471.56-.17,497.23,0,555,.42,609.3,14.39,659,44,744.1,94.68,796.27,169.08,816,266.26c2.82,14,.31,27.67-2,41.31-11.27,67.23-41.43,124.71-89.87,172.63-2,1.93-4,3.79-6,5.67a9.27,9.27,0,0,1-1.35.77c2-6.74,3.83-13,5.61-19.32a350.88,350.88,0,0,0,12.84-82.42c1.88-49.26-5.8-97-24.24-142.64a160.19,160.19,0,0,0-20-35.29c-19-25.52-37.77-51.5-59.25-74.88-53.22-57.92-119.66-92.85-197-106.63-16.67-3-33.66-4.12-51.46-6.22ZM650.46,333.85C594,228.87,509,162.78,391.61,141.35S171.65,152,82,230c4.18-7.5,8.08-15.19,12.6-22.49C144.54,126.93,215.57,75.36,308.55,57c93.53-18.43,180.54.11,259.29,54.36,7.67,5.29,13.73,13.35,19.51,20.92,32.65,42.79,53.19,90.86,60.26,144.27,2.33,17.61,2.3,35.53,3.3,53.31a26.28,26.28,0,0,1-.45,4ZM485.86,269c-111.67-33.87-218.18-22.31-315.3,44.93S24.86,476.4,17.55,594.35c-.94-2.84-1.71-5.12-2.45-7.41-.78-2.46-1.61-4.92-2.31-7.41C3.87,547.62-1.1,515.07.21,482c3.3-83.8,33.25-156.73,91.57-217.39,42.56-44.25,93.84-73.92,153.34-89.19,9.57-2.46,19.3-5,29.08-5.79,8.7-.7,17.67.48,26.39,1.74q93.5,13.53,164.27,76.23c7.58,6.75,14.27,14.51,21,21.42ZM752.72,87.13a317.63,317.63,0,0,1,93.75,69.52c44.29,47.43,72.36,103.18,82.77,167.19C943.57,412,925.51,493.33,874,566.5c-6.72,9.53-17.17,16.79-26.82,23.82-43.78,31.92-92.81,50.88-146.61,57-16.25,1.85-32.7,1.94-49,2.3,103.56-56,170.87-139.68,192-256.08S831.15,175.41,752.72,87.13ZM330.37,335.29C227.12,390.75,159.86,474.2,138.8,590.49c-21,116,12,217.74,89.78,305.55l-.77,1.12c-13.93-8.62-28.37-16.52-41.69-26C119.28,823.64,75.23,760,57,680c-21.72-95.45-4-183.93,52.2-264.36a38.82,38.82,0,0,1,6.94-7.21c47.59-40,102.27-64,164-71.46,16.59-2,33.41-2.08,50.13-3l.07,1.32Zm261.84,626c-9.15,2.55-18.25,5.31-27.47,7.63-29.47,7.42-59.53,10.76-89.79,8.93Q306.88,967.67,213.8,826.91c-24-36.33-39-76.53-45.76-119.5-1.57-10,.05-20.68,1.51-30.86,8-55.55,29.42-105.47,64.5-149.28,9.41-11.74,20.32-22.29,30.56-33.38a25.33,25.33,0,0,1,2.56-2.1C233,604.41,244.65,710.91,311.94,808s162.65,145.8,280.28,153.26ZM333.09,647.86c55.79,103.82,139.33,170.83,255.4,191.87s217.86-12.13,306.2-89.84c-4.08,7.38-7.89,14.93-12.29,22.11C835.6,848.46,769.13,899.2,682,920.4c-95.68,23.27-184.78,6.23-266.14-49.62a52.37,52.37,0,0,1-10.31-9.59q-55.08-65.91-68.94-150.72a317,317,0,0,1-3.82-59.66c0-.76.16-1.51.32-2.95Zm635.09-263.4c3.89,17,8.38,33.94,11.53,51.1,5.14,27.9,5.6,56.14,2.83,84.31A316.21,316.21,0,0,1,942.35,647Q886.91,744.11,784,787.92c-23,9.77-46.75,17-71.44,20.29-9.76,1.3-20.08-.15-30-1.57a311.62,311.62,0,0,1-182.68-95c-.79-.84-1.47-1.78-2.21-2.68,112.42,34.11,218.91,22.59,316-44.61S959.5,502,966.77,384.9l1.41-.44ZM360.27,633.78a385,385,0,0,0,67.62,49.1,12.19,12.19,0,0,1,3.71,3.88,344.75,344.75,0,0,0,114.82,109.5,5.83,5.83,0,0,1,2.17,1.93Q421.36,753.91,360.27,633.78ZM623.36,343.89c-6.72-5.64-13.1-11.76-20.22-16.84-14.76-10.51-29.92-20.45-44.87-30.69a19.39,19.39,0,0,1-5.32-4.77,346.44,346.44,0,0,0-113.6-108.85,7.53,7.53,0,0,1-2.67-2.32q126.15,44.12,186.68,163.47ZM804.62,427.4c-29.92,84.53-84.39,147-164.22,187.6.76-1,1.44-2,2.27-2.94A360.32,360.32,0,0,0,687.73,550a16.11,16.11,0,0,1,4.8-5.31,346.66,346.66,0,0,0,109.81-115.2,21.32,21.32,0,0,1,1.28-1.87c0-.08.23-.06,1-.23Zm-461-64.5c-9.52,12.19-19.38,24.19-28.52,36.72-6.46,8.83-11.84,18.45-17.93,27.57a25.86,25.86,0,0,1-6.68,7.17A347,347,0,0,0,183.17,546.87c-.75,1.26-1.6,2.45-2.89,4.42,23.5-76,84.87-150.84,163.38-188.39ZM228.91,315.32c80.34-39.08,163-44.47,247.78-17.09-24.51,1.34-48.75,4.61-72.47,10.9a51.88,51.88,0,0,1-23.7.61,339.87,339.87,0,0,0-149,5.12c-.84.22-1.73.31-2.6.46Zm67,186.54c1.88,15.56,3.46,31.44,5.85,47.19,1.55,10.21,4.06,20.31,6.59,30.34a28.16,28.16,0,0,1,.36,13c-6.46,31.4-9,63.15-5.78,95,2.13,21.15,6.16,42.11,8.91,60.31-9.49-15.4-28.74-66.2-32.07-119.63a330,330,0,0,1,16.14-126.23ZM671.41,226.8c38.82,81.84,44.25,164.7,17.31,249.62-2.24-17.24-4.32-34.56-6.83-51.81a127.22,127.22,0,0,0-4.71-21.38c-2.49-7.58-2-14.78-.54-22.38a321.69,321.69,0,0,0,2.84-108.67c-2.16-14.73-5.19-29.34-8.07-45.38ZM507.18,679.85c28-1,55.3-6,82.38-12.86,3.55-.9,7.77.41,11.6,1.15A343.9,343.9,0,0,0,753.8,663.2a5.09,5.09,0,0,1,2.63-.15q-121.15,58.44-249.25,16.8Z" style="fill: #f2b237"/>
    </g>
  </g>
</svg>
